<svg xmlns="http://www.w3.org/2000/svg" viewBox="0 0 460 460" shape-rendering="crispEdges">
  <defs>    <linearGradient id="n-grad" x1="0.5" y1="0" x2="0.5" y2="1">
      <stop offset="0%" stop-color="#08d6ff"/>
      <stop offset="10%" stop-color="#1ab0fc"/>
      <stop offset="25%" stop-color="#3a7cf8"/>
      <stop offset="45%" stop-color="#6056f5"/>
      <stop offset="65%" stop-color="#7c4dff"/>
      <stop offset="85%" stop-color="#8e3cf0"/>
      <stop offset="100%" stop-color="#9333ea"/>
    </linearGradient>
  </defs>
  <path d="M237,59h8v1h-8Z M234,60h14v1h-14Z M232,61h18v1h-18Z M231,62h20v1h-20Z M229,63h24v1h-24Z M228,64h26v1h-26Z M227,65h29v1h-29Z M225,66h33v1h-33Z M223,67h37v1h-37Z M221,68h40v1h-40Z M220,69h43v1h-43Z M219,70h45v1h-45Z M216,71h51v1h-51Z M214,72h54v1h-54Z M213,73h57v1h-57Z M211,74h61v1h-61Z M210,75h63v1h-63Z M208,76h67v1h-67Z M206,77h71v1h-71Z M204,78h75v1h-75Z M204,79h75v1h-75Z M204,80h78v1h-78Z M204,81h79v1h-79Z M204,82h81v1h-81Z M204,83h83v1h-83Z M205,84h83v1h-83Z M206,85h84v1h-84Z M208,86h84v1h-84Z M210,87h83v1h-83Z M211,88h27v1h-27Z M239,88h56v1h-56Z M214,89h22v1h-22Z M241,89h56v1h-56Z M215,90h18v1h-18Z M243,90h56v1h-56Z M217,91h15v1h-15Z M245,91h55v1h-55Z M219,92h11v1h-11Z M246,92h56v1h-56Z M221,93h7v1h-7Z M248,93h55v1h-55Z M172,94h3v1h-3Z M222,94h5v1h-5Z M249,94h57v1h-57Z M170,95h6v1h-6Z M252,95h55v1h-55Z M169,96h9v1h-9Z M254,96h55v1h-55Z M167,97h12v1h-12Z M255,97h55v1h-55Z M165,98h16v1h-16Z M256,98h56v1h-56Z M164,99h18v1h-18Z M258,99h55v1h-55Z M162,100h22v1h-22Z M260,100h56v1h-56Z M159,101h27v1h-27Z M261,101h56v1h-56Z M158,102h29v1h-29Z M263,102h56v1h-56Z M156,103h33v1h-33Z M264,103h57v1h-57Z M155,104h35v1h-35Z M266,104h56v1h-56Z M153,105h39v1h-39Z M268,105h56v1h-56Z M152,106h41v1h-41Z M270,106h55v1h-55Z M149,107h46v1h-46Z M272,107h55v1h-55Z M148,108h48v1h-48Z M273,108h55v1h-55Z M146,109h52v1h-52Z M275,109h55v1h-55Z M145,110h54v1h-54Z M276,110h56v1h-56Z M143,111h58v1h-58Z M278,111h55v1h-55Z M140,112h63v1h-63Z M279,112h56v1h-56Z M140,113h64v1h-64Z M282,113h54v1h-54Z M138,114h68v1h-68Z M283,114h53v1h-53Z M137,115h70v1h-70Z M285,115h52v1h-52Z M136,116h73v1h-73Z M287,116h50v1h-50Z M135,117h75v1h-75Z M288,117h50v1h-50Z M135,118h77v1h-77Z M290,118h48v1h-48Z M134,119h80v1h-80Z M291,119h47v1h-47Z M134,120h81v1h-81Z M293,120h46v1h-46Z M134,121h82v1h-82Z M295,121h44v1h-44Z M134,122h84v1h-84Z M297,122h42v1h-42Z M133,123h87v1h-87Z M298,123h41v1h-41Z M133,124h88v1h-88Z M301,124h38v1h-38Z M133,125h89v1h-89Z M302,125h37v1h-37Z M133,126h90v1h-90Z M303,126h36v1h-36Z M133,127h35v1h-35Z M172,127h53v1h-53Z M305,127h34v1h-34Z M133,128h33v1h-33Z M173,128h54v1h-54Z M307,128h32v1h-32Z M133,129h31v1h-31Z M175,129h54v1h-54Z M308,129h31v1h-31Z M133,130h30v1h-30Z M176,130h54v1h-54Z M310,130h29v1h-29Z M133,131h29v1h-29Z M178,131h54v1h-54Z M311,131h28v1h-28Z M133,132h28v1h-28Z M179,132h54v1h-54Z M311,132h28v1h-28Z M133,133h28v1h-28Z M181,133h53v1h-53Z M311,133h28v1h-28Z M133,134h28v1h-28Z M182,134h54v1h-54Z M311,134h28v1h-28Z M133,135h28v1h-28Z M184,135h54v1h-54Z M311,135h28v1h-28Z M133,136h28v1h-28Z M186,136h53v1h-53Z M311,136h28v1h-28Z M133,137h28v1h-28Z M187,137h53v1h-53Z M311,137h28v1h-28Z M133,138h28v1h-28Z M188,138h54v1h-54Z M311,138h28v1h-28Z M133,139h28v1h-28Z M190,139h53v1h-53Z M311,139h28v1h-28Z M133,140h28v1h-28Z M192,140h53v1h-53Z M311,140h28v1h-28Z M133,141h28v1h-28Z M193,141h54v1h-54Z M311,141h28v1h-28Z M133,142h28v1h-28Z M194,142h54v1h-54Z M311,142h28v1h-28Z M133,143h28v1h-28Z M196,143h54v1h-54Z M311,143h28v1h-28Z M133,144h28v1h-28Z M198,144h53v1h-53Z M311,144h28v1h-28Z M133,145h28v1h-28Z M199,145h53v1h-53Z M311,145h28v1h-28Z M133,146h28v1h-28Z M200,146h55v1h-55Z M311,146h28v1h-28Z M133,147h28v1h-28Z M203,147h53v1h-53Z M311,147h28v1h-28Z M133,148h28v1h-28Z M203,148h55v1h-55Z M311,148h28v1h-28Z M133,149h28v1h-28Z M205,149h54v1h-54Z M311,149h28v1h-28Z M133,150h28v1h-28Z M206,150h55v1h-55Z M311,150h28v1h-28Z M133,151h28v1h-28Z M208,151h53v1h-53Z M311,151h28v1h-28Z M133,152h28v1h-28Z M209,152h55v1h-55Z M311,152h28v1h-28Z M133,153h28v1h-28Z M211,153h54v1h-54Z M311,153h28v1h-28Z M133,154h28v1h-28Z M213,154h54v1h-54Z M311,154h28v1h-28Z M133,155h28v1h-28Z M214,155h54v1h-54Z M311,155h28v1h-28Z M133,156h28v1h-28Z M215,156h54v1h-54Z M311,156h28v1h-28Z M133,157h28v1h-28Z M217,157h53v1h-53Z M311,157h28v1h-28Z M133,158h28v1h-28Z M218,158h55v1h-55Z M311,158h28v1h-28Z M133,159h28v1h-28Z M220,159h54v1h-54Z M311,159h28v1h-28Z M133,160h28v1h-28Z M221,160h55v1h-55Z M311,160h28v1h-28Z M133,161h28v1h-28Z M223,161h54v1h-54Z M311,161h28v1h-28Z M133,162h28v1h-28Z M225,162h53v1h-53Z M311,162h28v1h-28Z M133,163h28v1h-28Z M226,163h54v1h-54Z M311,163h28v1h-28Z M133,164h28v1h-28Z M228,164h54v1h-54Z M311,164h28v1h-28Z M133,165h28v1h-28Z M229,165h54v1h-54Z M311,165h28v1h-28Z M133,166h28v1h-28Z M230,166h54v1h-54Z M311,166h28v1h-28Z M133,167h28v1h-28Z M232,167h52v1h-52Z M311,167h28v1h-28Z M133,168h28v1h-28Z M233,168h51v1h-51Z M311,168h28v1h-28Z M133,169h28v1h-28Z M235,169h49v1h-49Z M311,169h28v1h-28Z M133,170h28v1h-28Z M237,170h47v1h-47Z M311,170h28v1h-28Z M133,171h28v1h-28Z M238,171h46v1h-46Z M311,171h28v1h-28Z M133,172h28v1h-28Z M190,172h3v1h-3Z M239,172h45v1h-45Z M311,172h28v1h-28Z M133,173h28v1h-28Z M190,173h4v1h-4Z M241,173h43v1h-43Z M311,173h28v1h-28Z M133,174h28v1h-28Z M190,174h5v1h-5Z M243,174h41v1h-41Z M311,174h28v1h-28Z M133,175h28v1h-28Z M190,175h8v1h-8Z M244,175h40v1h-40Z M311,175h28v1h-28Z M133,176h28v1h-28Z M190,176h9v1h-9Z M246,176h38v1h-38Z M311,176h28v1h-28Z M133,177h28v1h-28Z M190,177h10v1h-10Z M247,177h37v1h-37Z M311,177h28v1h-28Z M133,178h28v1h-28Z M190,178h12v1h-12Z M249,178h35v1h-35Z M311,178h28v1h-28Z M133,179h28v1h-28Z M190,179h13v1h-13Z M250,179h34v1h-34Z M311,179h28v1h-28Z M133,180h28v1h-28Z M190,180h15v1h-15Z M252,180h32v1h-32Z M311,180h28v1h-28Z M133,181h28v1h-28Z M190,181h16v1h-16Z M253,181h31v1h-31Z M311,181h28v1h-28Z M133,182h28v1h-28Z M190,182h18v1h-18Z M255,182h29v1h-29Z M311,182h28v1h-28Z M133,183h28v1h-28Z M190,183h19v1h-19Z M256,183h28v1h-28Z M311,183h28v1h-28Z M133,184h28v1h-28Z M190,184h20v1h-20Z M257,184h27v1h-27Z M311,184h28v1h-28Z M133,185h28v1h-28Z M190,185h22v1h-22Z M259,185h25v1h-25Z M311,185h28v1h-28Z M133,186h28v1h-28Z M190,186h24v1h-24Z M261,186h23v1h-23Z M311,186h28v1h-28Z M133,187h28v1h-28Z M190,187h26v1h-26Z M262,187h22v1h-22Z M311,187h28v1h-28Z M133,188h28v1h-28Z M190,188h27v1h-27Z M264,188h20v1h-20Z M311,188h28v1h-28Z M133,189h28v1h-28Z M190,189h28v1h-28Z M265,189h19v1h-19Z M311,189h28v1h-28Z M133,190h28v1h-28Z M190,190h30v1h-30Z M266,190h18v1h-18Z M311,190h28v1h-28Z M133,191h28v1h-28Z M190,191h31v1h-31Z M268,191h16v1h-16Z M311,191h28v1h-28Z M133,192h28v1h-28Z M190,192h33v1h-33Z M269,192h15v1h-15Z M311,192h28v1h-28Z M133,193h28v1h-28Z M190,193h34v1h-34Z M272,193h12v1h-12Z M311,193h28v1h-28Z M133,194h28v1h-28Z M190,194h36v1h-36Z M273,194h11v1h-11Z M311,194h28v1h-28Z M133,195h28v1h-28Z M190,195h37v1h-37Z M274,195h10v1h-10Z M311,195h28v1h-28Z M133,196h28v1h-28Z M190,196h39v1h-39Z M276,196h8v1h-8Z M311,196h28v1h-28Z M133,197h28v1h-28Z M190,197h40v1h-40Z M277,197h7v1h-7Z M311,197h28v1h-28Z M133,198h28v1h-28Z M190,198h42v1h-42Z M279,198h5v1h-5Z M311,198h28v1h-28Z M133,199h28v1h-28Z M190,199h44v1h-44Z M280,199h4v1h-4Z M311,199h28v1h-28Z M133,200h28v1h-28Z M190,200h45v1h-45Z M282,200h2v1h-2Z M311,200h28v1h-28Z M133,201h28v1h-28Z M190,201h47v1h-47Z M283,201h1v1h-1Z M311,201h28v1h-28Z M133,202h28v1h-28Z M190,202h48v1h-48Z M311,202h28v1h-28Z M133,203h28v1h-28Z M190,203h49v1h-49Z M311,203h28v1h-28Z M133,204h28v1h-28Z M190,204h51v1h-51Z M311,204h28v1h-28Z M133,205h28v1h-28Z M190,205h53v1h-53Z M311,205h28v1h-28Z M133,206h28v1h-28Z M190,206h55v1h-55Z M311,206h28v1h-28Z M133,207h28v1h-28Z M190,207h55v1h-55Z M311,207h28v1h-28Z M133,208h28v1h-28Z M190,208h57v1h-57Z M311,208h28v1h-28Z M133,209h28v1h-28Z M190,209h59v1h-59Z M311,209h28v1h-28Z M133,210h28v1h-28Z M190,210h61v1h-61Z M311,210h28v1h-28Z M133,211h28v1h-28Z M190,211h62v1h-62Z M311,211h28v1h-28Z M133,212h28v1h-28Z M190,212h63v1h-63Z M311,212h28v1h-28Z M133,213h28v1h-28Z M190,213h64v1h-64Z M311,213h28v1h-28Z M133,214h28v1h-28Z M190,214h66v1h-66Z M311,214h28v1h-28Z M133,215h28v1h-28Z M190,215h68v1h-68Z M311,215h28v1h-28Z M133,216h28v1h-28Z M190,216h69v1h-69Z M311,216h28v1h-28Z M133,217h28v1h-28Z M190,217h71v1h-71Z M311,217h28v1h-28Z M133,218h28v1h-28Z M190,218h72v1h-72Z M311,218h28v1h-28Z M133,219h28v1h-28Z M190,219h74v1h-74Z M311,219h28v1h-28Z M133,220h28v1h-28Z M190,220h75v1h-75Z M311,220h28v1h-28Z M133,221h28v1h-28Z M190,221h77v1h-77Z M311,221h28v1h-28Z M133,222h28v1h-28Z M190,222h27v1h-27Z M218,222h50v1h-50Z M311,222h28v1h-28Z M133,223h28v1h-28Z M190,223h27v1h-27Z M220,223h50v1h-50Z M311,223h28v1h-28Z M133,224h28v1h-28Z M190,224h27v1h-27Z M221,224h50v1h-50Z M311,224h28v1h-28Z M133,225h28v1h-28Z M190,225h27v1h-27Z M223,225h50v1h-50Z M311,225h28v1h-28Z M133,226h28v1h-28Z M190,226h27v1h-27Z M224,226h50v1h-50Z M311,226h28v1h-28Z M133,227h29v1h-29Z M190,227h26v1h-26Z M225,227h51v1h-51Z M311,227h28v1h-28Z M133,228h31v1h-31Z M190,228h26v1h-26Z M227,228h51v1h-51Z M311,228h28v1h-28Z M133,229h32v1h-32Z M190,229h26v1h-26Z M228,229h51v1h-51Z M311,229h28v1h-28Z M133,230h34v1h-34Z M190,230h26v1h-26Z M230,230h50v1h-50Z M310,230h29v1h-29Z M133,231h35v1h-35Z M190,231h27v1h-27Z M232,231h49v1h-49Z M309,231h30v1h-30Z M133,232h37v1h-37Z M190,232h27v1h-27Z M233,232h51v1h-51Z M307,232h32v1h-32Z M133,233h39v1h-39Z M190,233h27v1h-27Z M235,233h50v1h-50Z M305,233h34v1h-34Z M133,234h40v1h-40Z M190,234h27v1h-27Z M236,234h51v1h-51Z M304,234h35v1h-35Z M133,235h42v1h-42Z M190,235h26v1h-26Z M237,235h51v1h-51Z M302,235h37v1h-37Z M133,236h43v1h-43Z M190,236h26v1h-26Z M239,236h51v1h-51Z M301,236h38v1h-38Z M133,237h45v1h-45Z M190,237h26v1h-26Z M240,237h51v1h-51Z M299,237h40v1h-40Z M134,238h45v1h-45Z M190,238h26v1h-26Z M242,238h51v1h-51Z M297,238h41v1h-41Z M134,239h47v1h-47Z M190,239h26v1h-26Z M244,239h94v1h-94Z M135,240h47v1h-47Z M190,240h26v1h-26Z M245,240h92v1h-92Z M135,241h49v1h-49Z M190,241h26v1h-26Z M247,241h90v1h-90Z M136,242h49v1h-49Z M190,242h26v1h-26Z M248,242h89v1h-89Z M136,243h51v1h-51Z M190,243h26v1h-26Z M250,243h86v1h-86Z M137,244h52v1h-52Z M190,244h26v1h-26Z M251,244h85v1h-85Z M139,245h77v1h-77Z M253,245h81v1h-81Z M140,246h76v1h-76Z M254,246h79v1h-79Z M141,247h75v1h-75Z M255,247h77v1h-77Z M143,248h73v1h-73Z M256,248h75v1h-75Z M145,249h71v1h-71Z M258,249h70v1h-70Z M146,250h70v1h-70Z M259,250h68v1h-68Z M148,251h68v1h-68Z M261,251h64v1h-64Z M150,252h66v1h-66Z M263,252h60v1h-60Z M151,253h65v1h-65Z M264,253h58v1h-58Z M153,254h63v1h-63Z M266,254h54v1h-54Z M154,255h62v1h-62Z M267,255h52v1h-52Z M156,256h60v1h-60Z M269,256h47v1h-47Z M158,257h58v1h-58Z M270,257h45v1h-45Z M159,258h57v1h-57Z M272,258h41v1h-41Z M161,259h55v1h-55Z M273,259h38v1h-38Z M162,260h54v1h-54Z M275,260h35v1h-35Z M164,261h52v1h-52Z M276,261h32v1h-32Z M166,262h50v1h-50Z M278,262h29v1h-29Z M168,263h48v1h-48Z M279,263h25v1h-25Z M169,264h47v1h-47Z M281,264h22v1h-22Z M170,265h46v1h-46Z M282,265h19v1h-19Z M172,266h44v1h-44Z M283,266h17v1h-17Z M174,267h42v1h-42Z M285,267h13v1h-13Z M176,268h40v1h-40Z M288,268h7v1h-7Z M177,269h39v1h-39Z M179,270h37v1h-37Z M180,271h36v1h-36Z M181,272h35v1h-35Z M183,273h33v1h-33Z M185,274h31v1h-31Z M186,275h30v1h-30Z M188,276h28v1h-28Z M189,277h27v1h-27Z M191,278h25v1h-25Z M193,279h23v1h-23Z M194,280h22v1h-22Z M196,281h20v1h-20Z M198,282h18v1h-18Z M199,283h17v1h-17Z M200,284h16v1h-16Z M203,285h13v1h-13Z M204,286h12v1h-12Z M205,287h11v1h-11Z M207,288h9v1h-9Z M208,289h8v1h-8Z M210,290h6v1h-6Z M212,291h4v1h-4Z" fill="url(#n-grad)"/>
</svg>