<svg xmlns="http://www.w3.org/2000/svg" viewBox="0 0 460 460">
  <defs>    <linearGradient id="n-grad" x1="0.5" y1="0" x2="0.5" y2="1">
      <stop offset="0%" stop-color="#08d6ff"/>
      <stop offset="10%" stop-color="#1ab0fc"/>
      <stop offset="25%" stop-color="#3a7cf8"/>
      <stop offset="45%" stop-color="#6056f5"/>
      <stop offset="65%" stop-color="#7c4dff"/>
      <stop offset="85%" stop-color="#8e3cf0"/>
      <stop offset="100%" stop-color="#9333ea"/>
    </linearGradient>
  </defs>
  <rect width="460" height="460" rx="92" fill="#05050a"/>
  <path d="M237,59h8v1h-8Z M234,60h14v1h-14Z M232,61h18v1h-18Z M231,62h20v1h-20Z M229,63h24v1h-24Z M228,64h26v1h-26Z M227,65h29v1h-29Z M225,66h33v1h-33Z M223,67h37v1h-37Z M221,68h40v1h-40Z M220,69h43v1h-43Z M219,70h45v1h-45Z M216,71h51v1h-51Z M214,72h54v1h-54Z M213,73h57v1h-57Z M211,74h61v1h-61Z M210,75h63v1h-63Z M208,76h67v1h-67Z M206,77h71v1h-71Z M204,78h75v1h-75Z M204,79h75v1h-75Z M204,80h78v1h-78Z M204,81h79v1h-79Z M204,82h81v1h-81Z M204,83h83v1h-83Z M205,84h83v1h-83Z M206,85h84v1h-84Z M208,86h84v1h-84Z M210,87h83v1h-83Z M211,88h27v1h-27Z M239,88h56v1h-56Z M214,89h22v1h-22Z M241,89h56v1h-56Z M215,90h18v1h-18Z M243,90h56v1h-56Z M217,91h15v1h-15Z M245,91h55v1h-55Z M219,92h11v1h-11Z M246,92h56v1h-56Z M221,93h7v1h-7Z M248,93h55v1h-55Z M172,94h3v1h-3Z M222,94h5v1h-5Z M249,94h57v1h-57Z M170,95h6v1h-6Z M252,95h55v1h-55Z M169,96h9v1h-9Z M254,96h55v1h-55Z M167,97h12v1h-12Z M255,97h55v1h-55Z M165,98h16v1h-16Z M256,98h56v1h-56Z M164,99h18v1h-18Z M258,99h55v1h-55Z M162,100h22v1h-22Z M260,100h56v1h-56Z M159,101h27v1h-27Z M261,101h56v1h-56Z M158,102h29v1h-29Z M263,102h56v1h-56Z M156,103h33v1h-33Z M264,103h57v1h-57Z M155,104h35v1h-35Z M266,104h56v1h-56Z M153,105h39v1h-39Z M268,105h56v1h-56Z M152,106h41v1h-41Z M270,106h55v1h-55Z M149,107h46v1h-46Z M272,107h55v1h-55Z M148,108h48v1h-48Z M273,108h55v1h-55Z M146,109h52v1h-52Z M275,109h55v1h-55Z M145,110h54v1h-54Z M276,110h56v1h-56Z M143,111h58v1h-58Z M278,111h55v1h-55Z M140,112h63v1h-63Z M279,112h56v1h-56Z M140,113h64v1h-64Z M282,113h54v1h-54Z M138,114h68v1h-68Z M283,114h53v1h-53Z M137,115h70v1h-70Z M285,115h52v1h-52Z M136,116h73v1h-73Z M287,116h50v1h-50Z M135,117h75v1h-75Z M288,117h50v1h-50Z M135,118h77v1h-77Z M290,118h48v1h-48Z M134,119h80v1h-80Z M291,119h47v1h-47Z M134,120h81v1h-81Z M293,120h46v1h-46Z M134,121h82v1h-82Z M295,121h44v1h-44Z M134,122h84v1h-84Z M297,122h42v1h-42Z M133,123h87v1h-87Z M298,123h41v1h-41Z M133,124h88v1h-88Z M301,124h38v1h-38Z M133,125h89v1h-89Z M302,125h37v1h-37Z M133,126h90v1h-90Z M303,126h36v1h-36Z M133,127h35v1h-35Z M172,127h53v1h-53Z M305,127h34v1h-34Z M133,128h33v1h-33Z M173,128h54v1h-54Z M307,128h32v1h-32Z M133,129h31v1h-31Z M175,129h54v1h-54Z M308,129h31v1h-31Z M133,130h30v1h-30Z M176,130h54v1h-54Z M310,130h29v1h-29Z M133,131h29v1h-29Z M178,131h54v1h-54Z M311,131h28v1h-28Z M133,132h28v1h-28Z M179,132h54v1h-54Z M311,132h28v1h-28Z M133,133h28v1h-28Z M181,133h53v1h-53Z M311,133h28v1h-28Z M133,134h28v1h-28Z M182,134h54v1h-54Z M311,134h28v1h-28Z M133,135h28v1h-28Z M184,135h54v1h-54Z M311,135h28v1h-28Z M133,136h28v1h-28Z M186,136h53v1h-53Z M311,136h28v1h-28Z M133,137h28v1h-28Z M187,137h53v1h-53Z M311,137h28v1h-28Z M133,138h28v1h-28Z M188,138h54v1h-54Z M311,138h28v1h-28Z M133,139h28v1h-28Z M190,139h53v1h-53Z M311,139h28v1h-28Z M133,140h28v1h-28Z M192,140h53v1h-53Z M311,140h28v1h-28Z M133,141h28v1h-28Z M193,141h54v1h-54Z M311,141h28v1h-28Z M133,142h28v1h-28Z M194,142h54v1h-54Z M311,142h28v1h-28Z M133,143h28v1h-28Z M196,143h54v1h-54Z M311,143h28v1h-28Z M133,144h28v1h-28Z M198,144h53v1h-53Z M311,144h28v1h-28Z M133,145h28v1h-28Z M199,145h53v1h-53Z M311,145h28v1h-28Z M133,146h28v1h-28Z M200,146h55v1h-55Z M311,146h28v1h-28Z M133,147h28v1h-28Z M203,147h53v1h-53Z M311,147h28v1h-28Z M133,148h28v1h-28Z M203,148h55v1h-55Z M311,148h28v1h-28Z M133,149h28v1h-28Z M205,149h54v1h-54Z M311,149h28v1h-28Z M133,150h28v1h-28Z M206,150h55v1h-55Z M311,150h28v1h-28Z M133,151h28v1h-28Z M208,151h53v1h-53Z M311,151h28v1h-28Z M133,152h28v1h-28Z M209,152h55v1h-55Z M311,152h28v1h-28Z M133,153h28v1h-28Z M211,153h54v1h-54Z M311,153h28v1h-28Z M133,154h28v1h-28Z M213,154h54v1h-54Z M311,154h28v1h-28Z M133,155h28v1h-28Z M214,155h54v1h-54Z M311,155h28v1h-28Z M133,156h28v1h-28Z M215,156h54v1h-54Z M311,156h28v1h-28Z M133,157h28v1h-28Z M217,157h53v1h-53Z M311,157h28v1h-28Z M133,158h28v1h-28Z M218,158h55v1h-55Z M311,158h28v1h-28Z M133,159h28v1h-28Z M220,159h54v1h-54Z M311,159h28v1h-28Z M133,160h28v1h-28Z M221,160h55v1h-55Z M311,160h28v1h-28Z M133,161h28v1h-28Z M223,161h54v1h-54Z M311,161h28v1h-28Z M133,162h28v1h-28Z M225,162h53v1h-53Z M311,162h28v1h-28Z M133,163h28v1h-28Z M226,163h54v1h-54Z M311,163h28v1h-28Z M133,164h28v1h-28Z M228,164h54v1h-54Z M311,164h28v1h-28Z M133,165h28v1h-28Z M229,165h54v1h-54Z M311,165h28v1h-28Z M133,166h28v1h-28Z M230,166h54v1h-54Z M311,166h28v1h-28Z M133,167h28v1h-28Z M232,167h52v1h-52Z M311,167h28v1h-28Z M133,168h28v1h-28Z M233,168h51v1h-51Z M311,168h28v1h-28Z M133,169h28v1h-28Z M235,169h49v1h-49Z M311,169h28v1h-28Z M133,170h28v1h-28Z M237,170h47v1h-47Z M311,170h28v1h-28Z M133,171h28v1h-28Z M238,171h46v1h-46Z M311,171h28v1h-28Z M133,172h28v1h-28Z M190,172h3v1h-3Z M239,172h45v1h-45Z M311,172h28v1h-28Z M133,173h28v1h-28Z M190,173h4v1h-4Z M241,173h43v1h-43Z M311,173h28v1h-28Z M133,174h28v1h-28Z M190,174h5v1h-5Z M243,174h41v1h-41Z M311,174h28v1h-28Z M133,175h28v1h-28Z M190,175h8v1h-8Z M244,175h40v1h-40Z M311,175h28v1h-28Z M133,176h28v1h-28Z M190,176h9v1h-9Z M246,176h38v1h-38Z M311,176h28v1h-28Z M133,177h28v1h-28Z M190,177h10v1h-10Z M247,177h37v1h-37Z M311,177h28v1h-28Z M133,178h28v1h-28Z M190,178h12v1h-12Z M249,178h35v1h-35Z M311,178h28v1h-28Z M133,179h28v1h-28Z M190,179h13v1h-13Z M250,179h34v1h-34Z M311,179h28v1h-28Z M133,180h28v1h-28Z M190,180h15v1h-15Z M252,180h32v1h-32Z M311,180h28v1h-28Z M133,181h28v1h-28Z M190,181h16v1h-16Z M253,181h31v1h-31Z M311,181h28v1h-28Z M133,182h28v1h-28Z M190,182h18v1h-18Z M255,182h29v1h-29Z M311,182h28v1h-28Z M133,183h28v1h-28Z M190,183h19v1h-19Z M256,183h28v1h-28Z M311,183h28v1h-28Z M133,184h28v1h-28Z M190,184h20v1h-20Z M257,184h27v1h-27Z M311,184h28v1h-28Z M133,185h28v1h-28Z M190,185h22v1h-22Z M259,185h25v1h-25Z M311,185h28v1h-28Z M133,186h28v1h-28Z M190,186h24v1h-24Z M261,186h23v1h-23Z M311,186h28v1h-28Z M133,187h28v1h-28Z M190,187h26v1h-26Z M262,187h22v1h-22Z M311,187h28v1h-28Z M133,188h28v1h-28Z M190,188h27v1h-27Z M264,188h20v1h-20Z M311,188h28v1h-28Z M133,189h28v1h-28Z M190,189h28v1h-28Z M265,189h19v1h-19Z M311,189h28v1h-28Z M133,190h28v1h-28Z M190,190h30v1h-30Z M266,190h18v1h-18Z M311,190h28v1h-28Z M133,191h28v1h-28Z M190,191h31v1h-31Z M268,191h16v1h-16Z M311,191h28v1h-28Z M133,192h28v1h-28Z M190,192h33v1h-33Z M269,192h15v1h-15Z M311,192h28v1h-28Z M133,193h28v1h-28Z M190,193h34v1h-34Z M272,193h12v1h-12Z M311,193h28v1h-28Z M133,194h28v1h-28Z M190,194h36v1h-36Z M273,194h11v1h-11Z M311,194h28v1h-28Z M133,195h28v1h-28Z M190,195h37v1h-37Z M274,195h10v1h-10Z M311,195h28v1h-28Z M133,196h28v1h-28Z M190,196h39v1h-39Z M276,196h8v1h-8Z M311,196h28v1h-28Z M133,197h28v1h-28Z M190,197h40v1h-40Z M277,197h7v1h-7Z M311,197h28v1h-28Z M133,198h28v1h-28Z M190,198h42v1h-42Z M279,198h5v1h-5Z M311,198h28v1h-28Z M133,199h28v1h-28Z M190,199h44v1h-44Z M280,199h4v1h-4Z M311,199h28v1h-28Z M133,200h28v1h-28Z M190,200h45v1h-45Z M282,200h2v1h-2Z M311,200h28v1h-28Z M133,201h28v1h-28Z M190,201h47v1h-47Z M283,201h1v1h-1Z M311,201h28v1h-28Z M133,202h28v1h-28Z M190,202h48v1h-48Z M311,202h28v1h-28Z M133,203h28v1h-28Z M190,203h49v1h-49Z M311,203h28v1h-28Z M133,204h28v1h-28Z M190,204h51v1h-51Z M311,204h28v1h-28Z M133,205h28v1h-28Z M190,205h53v1h-53Z M311,205h28v1h-28Z M133,206h28v1h-28Z M190,206h55v1h-55Z M311,206h28v1h-28Z M133,207h28v1h-28Z M190,207h55v1h-55Z M311,207h28v1h-28Z M133,208h28v1h-28Z M190,208h57v1h-57Z M311,208h28v1h-28Z M133,209h28v1h-28Z M190,209h59v1h-59Z M311,209h28v1h-28Z M133,210h28v1h-28Z M190,210h61v1h-61Z M311,210h28v1h-28Z M133,211h28v1h-28Z M190,211h62v1h-62Z M311,211h28v1h-28Z M133,212h28v1h-28Z M190,212h63v1h-63Z M311,212h28v1h-28Z M133,213h28v1h-28Z M190,213h64v1h-64Z M311,213h28v1h-28Z M133,214h28v1h-28Z M190,214h66v1h-66Z M311,214h28v1h-28Z M133,215h28v1h-28Z M190,215h68v1h-68Z M311,215h28v1h-28Z M133,216h28v1h-28Z M190,216h69v1h-69Z M311,216h28v1h-28Z M133,217h28v1h-28Z M190,217h71v1h-71Z M311,217h28v1h-28Z M133,218h28v1h-28Z M190,218h72v1h-72Z M311,218h28v1h-28Z M133,219h28v1h-28Z M190,219h74v1h-74Z M311,219h28v1h-28Z M133,220h28v1h-28Z M190,220h75v1h-75Z M311,220h28v1h-28Z M133,221h28v1h-28Z M190,221h77v1h-77Z M311,221h28v1h-28Z M133,222h28v1h-28Z M190,222h27v1h-27Z M218,222h50v1h-50Z M311,222h28v1h-28Z M133,223h28v1h-28Z M190,223h27v1h-27Z M220,223h50v1h-50Z M311,223h28v1h-28Z M133,224h28v1h-28Z M190,224h27v1h-27Z M221,224h50v1h-50Z M311,224h28v1h-28Z M133,225h28v1h-28Z M190,225h27v1h-27Z M223,225h50v1h-50Z M311,225h28v1h-28Z M133,226h28v1h-28Z M190,226h27v1h-27Z M224,226h50v1h-50Z M311,226h28v1h-28Z M133,227h29v1h-29Z M190,227h26v1h-26Z M225,227h51v1h-51Z M311,227h28v1h-28Z M133,228h31v1h-31Z M190,228h26v1h-26Z M227,228h51v1h-51Z M311,228h28v1h-28Z M133,229h32v1h-32Z M190,229h26v1h-26Z M228,229h51v1h-51Z M311,229h28v1h-28Z M133,230h34v1h-34Z M190,230h26v1h-26Z M230,230h50v1h-50Z M310,230h29v1h-29Z M133,231h35v1h-35Z M190,231h27v1h-27Z M232,231h49v1h-49Z M309,231h30v1h-30Z M133,232h37v1h-37Z M190,232h27v1h-27Z M233,232h51v1h-51Z M307,232h32v1h-32Z M133,233h39v1h-39Z M190,233h27v1h-27Z M235,233h50v1h-50Z M305,233h34v1h-34Z M133,234h40v1h-40Z M190,234h27v1h-27Z M236,234h51v1h-51Z M304,234h35v1h-35Z M133,235h42v1h-42Z M190,235h26v1h-26Z M237,235h51v1h-51Z M302,235h37v1h-37Z M133,236h43v1h-43Z M190,236h26v1h-26Z M239,236h51v1h-51Z M301,236h38v1h-38Z M133,237h45v1h-45Z M190,237h26v1h-26Z M240,237h51v1h-51Z M299,237h40v1h-40Z M134,238h45v1h-45Z M190,238h26v1h-26Z M242,238h51v1h-51Z M297,238h41v1h-41Z M134,239h47v1h-47Z M190,239h26v1h-26Z M244,239h94v1h-94Z M135,240h47v1h-47Z M190,240h26v1h-26Z M245,240h92v1h-92Z M135,241h49v1h-49Z M190,241h26v1h-26Z M247,241h90v1h-90Z M136,242h49v1h-49Z M190,242h26v1h-26Z M248,242h89v1h-89Z M136,243h51v1h-51Z M190,243h26v1h-26Z M250,243h86v1h-86Z M137,244h52v1h-52Z M190,244h26v1h-26Z M251,244h85v1h-85Z M139,245h77v1h-77Z M253,245h81v1h-81Z M140,246h76v1h-76Z M254,246h79v1h-79Z M141,247h75v1h-75Z M255,247h77v1h-77Z M143,248h73v1h-73Z M256,248h75v1h-75Z M145,249h71v1h-71Z M258,249h70v1h-70Z M146,250h70v1h-70Z M259,250h68v1h-68Z M148,251h68v1h-68Z M261,251h64v1h-64Z M150,252h66v1h-66Z M263,252h60v1h-60Z M151,253h65v1h-65Z M264,253h58v1h-58Z M153,254h63v1h-63Z M266,254h54v1h-54Z M154,255h62v1h-62Z M267,255h52v1h-52Z M156,256h60v1h-60Z M269,256h47v1h-47Z M158,257h58v1h-58Z M270,257h45v1h-45Z M159,258h57v1h-57Z M272,258h41v1h-41Z M161,259h55v1h-55Z M273,259h38v1h-38Z M162,260h54v1h-54Z M275,260h35v1h-35Z M164,261h52v1h-52Z M276,261h32v1h-32Z M166,262h50v1h-50Z M278,262h29v1h-29Z M168,263h48v1h-48Z M279,263h25v1h-25Z M169,264h47v1h-47Z M281,264h22v1h-22Z M170,265h46v1h-46Z M282,265h19v1h-19Z M172,266h44v1h-44Z M283,266h17v1h-17Z M174,267h42v1h-42Z M285,267h13v1h-13Z M176,268h40v1h-40Z M288,268h7v1h-7Z M177,269h39v1h-39Z M179,270h37v1h-37Z M180,271h36v1h-36Z M181,272h35v1h-35Z M183,273h33v1h-33Z M185,274h31v1h-31Z M186,275h30v1h-30Z M188,276h28v1h-28Z M189,277h27v1h-27Z M191,278h25v1h-25Z M193,279h23v1h-23Z M194,280h22v1h-22Z M196,281h20v1h-20Z M198,282h18v1h-18Z M199,283h17v1h-17Z M200,284h16v1h-16Z M203,285h13v1h-13Z M204,286h12v1h-12Z M205,287h11v1h-11Z M207,288h9v1h-9Z M208,289h8v1h-8Z M210,290h6v1h-6Z M212,291h4v1h-4Z" fill="url(#n-grad)"/>
  <path d="M79,309h9v1h-9Z M120,309h10v1h-10Z M167,309h8v1h-8Z M215,309h46v1h-46Z M280,309h39v1h-39Z M346,309h39v1h-39Z M78,310h12v1h-12Z M120,310h10v1h-10Z M165,310h12v1h-12Z M214,310h47v1h-47Z M278,310h43v1h-43Z M343,310h42v1h-42Z M78,311h12v1h-12Z M120,311h10v1h-10Z M165,311h13v1h-13Z M214,311h47v1h-47Z M277,311h46v1h-46Z M342,311h42v1h-42Z M78,312h13v1h-13Z M120,312h10v1h-10Z M164,312h14v1h-14Z M214,312h47v1h-47Z M275,312h49v1h-49Z M341,312h43v1h-43Z M78,313h14v1h-14Z M120,313h10v1h-10Z M163,313h16v1h-16Z M213,313h48v1h-48Z M274,313h51v1h-51Z M340,313h44v1h-44Z M78,314h15v1h-15Z M120,314h10v1h-10Z M163,314h17v1h-17Z M213,314h48v1h-48Z M274,314h51v1h-51Z M339,314h45v1h-45Z M78,315h16v1h-16Z M120,315h10v1h-10Z M162,315h18v1h-18Z M213,315h48v1h-48Z M273,315h53v1h-53Z M339,315h45v1h-45Z M78,316h17v1h-17Z M120,316h10v1h-10Z M161,316h20v1h-20Z M213,316h48v1h-48Z M273,316h53v1h-53Z M338,316h46v1h-46Z M78,317h18v1h-18Z M120,317h10v1h-10Z M161,317h20v1h-20Z M213,317h48v1h-48Z M273,317h53v1h-53Z M338,317h46v1h-46Z M78,318h19v1h-19Z M120,318h10v1h-10Z M160,318h22v1h-22Z M213,318h47v1h-47Z M272,318h16v1h-16Z M292,318h35v1h-35Z M338,318h16v1h-16Z M367,318h16v1h-16Z M78,319h20v1h-20Z M120,319h10v1h-10Z M159,319h23v1h-23Z M213,319h12v1h-12Z M272,319h12v1h-12Z M316,319h11v1h-11Z M338,319h11v1h-11Z M78,320h21v1h-21Z M120,320h10v1h-10Z M159,320h11v1h-11Z M172,320h11v1h-11Z M213,320h12v1h-12Z M272,320h11v1h-11Z M316,320h11v1h-11Z M337,320h11v1h-11Z M78,321h22v1h-22Z M120,321h10v1h-10Z M159,321h11v1h-11Z M172,321h11v1h-11Z M213,321h12v1h-12Z M272,321h11v1h-11Z M317,321h10v1h-10Z M337,321h11v1h-11Z M78,322h23v1h-23Z M120,322h10v1h-10Z M158,322h11v1h-11Z M173,322h11v1h-11Z M213,322h12v1h-12Z M272,322h11v1h-11Z M317,322h10v1h-10Z M337,322h11v1h-11Z M78,323h24v1h-24Z M120,323h10v1h-10Z M158,323h11v1h-11Z M173,323h12v1h-12Z M213,323h12v1h-12Z M272,323h11v1h-11Z M317,323h10v1h-10Z M337,323h11v1h-11Z M78,324h10v1h-10Z M89,324h14v1h-14Z M120,324h10v1h-10Z M157,324h11v1h-11Z M174,324h11v1h-11Z M213,324h12v1h-12Z M272,324h11v1h-11Z M317,324h10v1h-10Z M337,324h11v1h-11Z M78,325h10v1h-10Z M90,325h14v1h-14Z M120,325h10v1h-10Z M156,325h12v1h-12Z M174,325h12v1h-12Z M213,325h12v1h-12Z M272,325h11v1h-11Z M317,325h10v1h-10Z M337,325h11v1h-11Z M78,326h10v1h-10Z M91,326h14v1h-14Z M120,326h10v1h-10Z M156,326h11v1h-11Z M175,326h12v1h-12Z M213,326h12v1h-12Z M272,326h11v1h-11Z M317,326h10v1h-10Z M338,326h11v1h-11Z M78,327h10v1h-10Z M92,327h14v1h-14Z M120,327h10v1h-10Z M156,327h11v1h-11Z M175,327h12v1h-12Z M213,327h12v1h-12Z M272,327h11v1h-11Z M317,327h10v1h-10Z M338,327h12v1h-12Z M78,328h10v1h-10Z M93,328h14v1h-14Z M120,328h10v1h-10Z M155,328h11v1h-11Z M176,328h11v1h-11Z M213,328h47v1h-47Z M272,328h11v1h-11Z M317,328h10v1h-10Z M338,328h41v1h-41Z M78,329h10v1h-10Z M93,329h14v1h-14Z M120,329h10v1h-10Z M154,329h12v1h-12Z M176,329h12v1h-12Z M213,329h47v1h-47Z M272,329h11v1h-11Z M317,329h10v1h-10Z M338,329h43v1h-43Z M78,330h10v1h-10Z M94,330h15v1h-15Z M120,330h10v1h-10Z M154,330h11v1h-11Z M177,330h12v1h-12Z M213,330h47v1h-47Z M272,330h11v1h-11Z M317,330h10v1h-10Z M339,330h44v1h-44Z M78,331h10v1h-10Z M95,331h15v1h-15Z M120,331h10v1h-10Z M153,331h11v1h-11Z M177,331h12v1h-12Z M213,331h47v1h-47Z M272,331h11v1h-11Z M317,331h10v1h-10Z M339,331h45v1h-45Z M78,332h10v1h-10Z M96,332h15v1h-15Z M120,332h10v1h-10Z M152,332h12v1h-12Z M178,332h12v1h-12Z M213,332h47v1h-47Z M272,332h11v1h-11Z M317,332h10v1h-10Z M340,332h45v1h-45Z M78,333h10v1h-10Z M97,333h14v1h-14Z M120,333h10v1h-10Z M152,333h11v1h-11Z M179,333h11v1h-11Z M213,333h47v1h-47Z M272,333h11v1h-11Z M317,333h10v1h-10Z M341,333h44v1h-44Z M78,334h10v1h-10Z M98,334h14v1h-14Z M120,334h10v1h-10Z M152,334h11v1h-11Z M179,334h12v1h-12Z M213,334h47v1h-47Z M272,334h11v1h-11Z M317,334h10v1h-10Z M342,334h44v1h-44Z M78,335h10v1h-10Z M99,335h14v1h-14Z M120,335h10v1h-10Z M151,335h12v1h-12Z M180,335h11v1h-11Z M213,335h46v1h-46Z M272,335h11v1h-11Z M317,335h10v1h-10Z M343,335h43v1h-43Z M78,336h10v1h-10Z M100,336h14v1h-14Z M120,336h10v1h-10Z M150,336h12v1h-12Z M180,336h12v1h-12Z M213,336h46v1h-46Z M272,336h11v1h-11Z M317,336h10v1h-10Z M346,336h40v1h-40Z M78,337h10v1h-10Z M101,337h14v1h-14Z M120,337h10v1h-10Z M150,337h11v1h-11Z M181,337h11v1h-11Z M213,337h12v1h-12Z M272,337h11v1h-11Z M317,337h10v1h-10Z M375,337h11v1h-11Z M78,338h10v1h-10Z M102,338h14v1h-14Z M120,338h10v1h-10Z M149,338h12v1h-12Z M181,338h12v1h-12Z M213,338h12v1h-12Z M272,338h11v1h-11Z M317,338h10v1h-10Z M376,338h11v1h-11Z M78,339h10v1h-10Z M103,339h14v1h-14Z M120,339h10v1h-10Z M148,339h12v1h-12Z M182,339h11v1h-11Z M213,339h12v1h-12Z M272,339h11v1h-11Z M317,339h10v1h-10Z M376,339h11v1h-11Z M78,340h10v1h-10Z M104,340h14v1h-14Z M120,340h10v1h-10Z M148,340h12v1h-12Z M170,340h2v1h-2Z M182,340h12v1h-12Z M213,340h12v1h-12Z M272,340h11v1h-11Z M317,340h10v1h-10Z M376,340h11v1h-11Z M78,341h10v1h-10Z M105,341h14v1h-14Z M120,341h10v1h-10Z M147,341h12v1h-12Z M167,341h8v1h-8Z M183,341h11v1h-11Z M213,341h12v1h-12Z M272,341h11v1h-11Z M317,341h10v1h-10Z M376,341h11v1h-11Z M78,342h10v1h-10Z M106,342h24v1h-24Z M147,342h12v1h-12Z M166,342h10v1h-10Z M183,342h12v1h-12Z M213,342h12v1h-12Z M272,342h11v1h-11Z M317,342h10v1h-10Z M376,342h11v1h-11Z M78,343h10v1h-10Z M107,343h23v1h-23Z M146,343h12v1h-12Z M166,343h10v1h-10Z M184,343h12v1h-12Z M213,343h12v1h-12Z M272,343h11v1h-11Z M317,343h10v1h-10Z M376,343h11v1h-11Z M78,344h10v1h-10Z M107,344h23v1h-23Z M146,344h12v1h-12Z M165,344h12v1h-12Z M185,344h11v1h-11Z M213,344h12v1h-12Z M272,344h11v1h-11Z M316,344h11v1h-11Z M376,344h11v1h-11Z M78,345h10v1h-10Z M109,345h21v1h-21Z M145,345h12v1h-12Z M165,345h12v1h-12Z M185,345h12v1h-12Z M213,345h12v1h-12Z M272,345h12v1h-12Z M315,345h12v1h-12Z M375,345h11v1h-11Z M78,346h10v1h-10Z M110,346h20v1h-20Z M145,346h11v1h-11Z M165,346h12v1h-12Z M186,346h12v1h-12Z M213,346h48v1h-48Z M272,346h55v1h-55Z M339,346h47v1h-47Z M78,347h10v1h-10Z M111,347h19v1h-19Z M144,347h12v1h-12Z M165,347h12v1h-12Z M186,347h12v1h-12Z M213,347h48v1h-48Z M273,347h53v1h-53Z M338,347h48v1h-48Z M78,348h10v1h-10Z M112,348h18v1h-18Z M143,348h12v1h-12Z M166,348h10v1h-10Z M187,348h11v1h-11Z M213,348h48v1h-48Z M273,348h53v1h-53Z M338,348h48v1h-48Z M78,349h10v1h-10Z M113,349h17v1h-17Z M143,349h11v1h-11Z M166,349h10v1h-10Z M187,349h12v1h-12Z M213,349h48v1h-48Z M273,349h53v1h-53Z M338,349h47v1h-47Z M78,350h10v1h-10Z M113,350h17v1h-17Z M143,350h11v1h-11Z M167,350h8v1h-8Z M188,350h11v1h-11Z M213,350h48v1h-48Z M274,350h51v1h-51Z M338,350h47v1h-47Z M78,351h10v1h-10Z M114,351h16v1h-16Z M142,351h11v1h-11Z M169,351h5v1h-5Z M188,351h12v1h-12Z M213,351h48v1h-48Z M274,351h51v1h-51Z M338,351h46v1h-46Z M78,352h10v1h-10Z M115,352h15v1h-15Z M141,352h12v1h-12Z M189,352h11v1h-11Z M213,352h48v1h-48Z M275,352h49v1h-49Z M337,352h46v1h-46Z M78,353h10v1h-10Z M116,353h14v1h-14Z M141,353h12v1h-12Z M189,353h12v1h-12Z M213,353h48v1h-48Z M277,353h45v1h-45Z M337,353h45v1h-45Z M78,354h10v1h-10Z M117,354h13v1h-13Z M140,354h12v1h-12Z M190,354h12v1h-12Z M213,354h48v1h-48Z M279,354h41v1h-41Z M337,354h43v1h-43Z" fill="#f0f0f0"/>
  <path d="M263,370h1v1h-1Z M96,371h9v1h-9Z M110,371h2v1h-2Z M116,371h2v1h-2Z M123,371h7v1h-7Z M137,371h3v1h-3Z M147,371h4v1h-4Z M154,371h2v1h-2Z M160,371h9v1h-9Z M174,371h3v1h-3Z M185,371h7v1h-7Z M199,371h4v1h-4Z M220,371h3v1h-3Z M231,371h2v1h-2Z M245,371h7v1h-7Z M257,371h2v1h-2Z M263,371h4v1h-4Z M271,371h7v1h-7Z M283,371h3v1h-3Z M290,371h3v1h-3Z M296,371h2v1h-2Z M299,371h1v1h-1Z M303,371h7v1h-7Z M315,371h8v1h-8Z M326,371h7v1h-7Z M337,371h4v1h-4Z M345,371h3v1h-3Z M351,371h3v1h-3Z M359,371h7v1h-7Z M95,372h10v1h-10Z M110,372h2v1h-2Z M116,372h2v1h-2Z M123,372h7v1h-7Z M137,372h3v1h-3Z M147,372h5v1h-5Z M154,372h2v1h-2Z M160,372h9v1h-9Z M174,372h4v1h-4Z M185,372h8v1h-8Z M198,372h5v1h-5Z M220,372h3v1h-3Z M231,372h2v1h-2Z M245,372h7v1h-7Z M257,372h3v1h-3Z M263,372h4v1h-4Z M271,372h8v1h-8Z M283,372h3v1h-3Z M290,372h3v1h-3Z M295,372h3v1h-3Z M299,372h1v1h-1Z M303,372h7v1h-7Z M315,372h8v1h-8Z M326,372h8v1h-8Z M337,372h4v1h-4Z M345,372h3v1h-3Z M350,372h4v1h-4Z M359,372h7v1h-7Z M95,373h5v1h-5Z M102,373h3v1h-3Z M110,373h2v1h-2Z M116,373h2v1h-2Z M123,373h2v1h-2Z M127,373h2v1h-2Z M136,373h6v1h-6Z M147,373h5v1h-5Z M154,373h2v1h-2Z M160,373h1v1h-1Z M162,373h3v1h-3Z M174,373h4v1h-4Z M185,373h2v1h-2Z M190,373h3v1h-3Z M199,373h4v1h-4Z M219,373h6v1h-6Z M231,373h2v1h-2Z M244,373h4v1h-4Z M257,373h4v1h-4Z M263,373h4v1h-4Z M270,373h3v1h-3Z M275,373h3v1h-3Z M283,373h2v1h-2Z M290,373h8v1h-8Z M299,373h1v1h-1Z M303,373h3v1h-3Z M315,373h2v1h-2Z M321,373h2v1h-2Z M326,373h2v1h-2Z M331,373h3v1h-3Z M338,373h3v1h-3Z M345,373h10v1h-10Z M359,373h2v1h-2Z M364,373h2v1h-2Z M95,374h6v1h-6Z M102,374h3v1h-3Z M110,374h2v1h-2Z M116,374h2v1h-2Z M123,374h2v1h-2Z M127,374h2v1h-2Z M136,374h2v1h-2Z M139,374h3v1h-3Z M147,374h5v1h-5Z M154,374h2v1h-2Z M161,374h4v1h-4Z M173,374h5v1h-5Z M185,374h2v1h-2Z M190,374h3v1h-3Z M199,374h5v1h-5Z M219,374h6v1h-6Z M231,374h2v1h-2Z M244,374h4v1h-4Z M257,374h4v1h-4Z M263,374h2v1h-2Z M270,374h2v1h-2Z M274,374h3v1h-3Z M283,374h2v1h-2Z M290,374h8v1h-8Z M303,374h3v1h-3Z M308,374h2v1h-2Z M314,374h3v1h-3Z M319,374h3v1h-3Z M326,374h2v1h-2Z M330,374h5v1h-5Z M338,374h3v1h-3Z M345,374h5v1h-5Z M351,374h4v1h-4Z M359,374h2v1h-2Z M96,375h9v1h-9Z M110,375h2v1h-2Z M116,375h2v1h-2Z M123,375h6v1h-6Z M135,375h3v1h-3Z M139,375h2v1h-2Z M147,375h6v1h-6Z M154,375h3v1h-3Z M162,375h3v1h-3Z M173,375h2v1h-2Z M176,375h4v1h-4Z M185,375h8v1h-8Z M198,375h3v1h-3Z M202,375h2v1h-2Z M219,375h7v1h-7Z M231,375h2v1h-2Z M245,375h8v1h-8Z M257,375h5v1h-5Z M263,375h2v1h-2Z M270,375h2v1h-2Z M273,375h5v1h-5Z M283,375h2v1h-2Z M290,375h8v1h-8Z M303,375h8v1h-8Z M314,375h7v1h-7Z M326,375h9v1h-9Z M338,375h3v1h-3Z M344,375h10v1h-10Z M359,375h2v1h-2Z M362,375h4v1h-4Z M96,376h3v1h-3Z M100,376h5v1h-5Z M110,376h2v1h-2Z M116,376h3v1h-3Z M124,376h6v1h-6Z M135,376h7v1h-7Z M147,376h11v1h-11Z M163,376h2v1h-2Z M172,376h7v1h-7Z M185,376h7v1h-7Z M198,376h7v1h-7Z M218,376h8v1h-8Z M231,376h2v1h-2Z M245,376h8v1h-8Z M257,376h2v1h-2Z M260,376h5v1h-5Z M270,376h2v1h-2Z M273,376h5v1h-5Z M283,376h2v1h-2Z M290,376h2v1h-2Z M293,376h5v1h-5Z M303,376h8v1h-8Z M314,376h8v1h-8Z M326,376h7v1h-7Z M338,376h3v1h-3Z M344,376h10v1h-10Z M359,376h2v1h-2Z M362,376h4v1h-4Z M96,377h3v1h-3Z M100,377h5v1h-5Z M110,377h2v1h-2Z M116,377h3v1h-3Z M127,377h4v1h-4Z M134,377h8v1h-8Z M147,377h3v1h-3Z M152,377h5v1h-5Z M163,377h2v1h-2Z M172,377h8v1h-8Z M185,377h2v1h-2Z M188,377h3v1h-3Z M192,377h1v1h-1Z M198,377h8v1h-8Z M218,377h7v1h-7Z M231,377h2v1h-2Z M245,377h3v1h-3Z M249,377h2v1h-2Z M257,377h2v1h-2Z M261,377h4v1h-4Z M270,377h2v1h-2Z M276,377h2v1h-2Z M283,377h3v1h-3Z M290,377h2v1h-2Z M294,377h4v1h-4Z M303,377h8v1h-8Z M314,377h3v1h-3Z M320,377h2v1h-2Z M326,377h2v1h-2Z M330,377h2v1h-2Z M338,377h4v1h-4Z M345,377h3v1h-3Z M349,377h5v1h-5Z M359,377h2v1h-2Z M364,377h2v1h-2Z M96,378h9v1h-9Z M110,378h3v1h-3Z M114,378h4v1h-4Z M122,378h3v1h-3Z M127,378h4v1h-4Z M133,378h9v1h-9Z M147,378h3v1h-3Z M152,378h5v1h-5Z M163,378h2v1h-2Z M171,378h9v1h-9Z M185,378h7v1h-7Z M197,378h10v1h-10Z M217,378h9v1h-9Z M231,378h2v1h-2Z M245,378h3v1h-3Z M257,378h2v1h-2Z M261,378h4v1h-4Z M269,378h5v1h-5Z M275,378h3v1h-3Z M283,378h3v1h-3Z M289,378h3v1h-3Z M295,378h3v1h-3Z M303,378h3v1h-3Z M308,378h3v1h-3Z M315,378h2v1h-2Z M320,378h3v1h-3Z M326,378h2v1h-2Z M330,378h3v1h-3Z M337,378h5v1h-5Z M345,378h3v1h-3Z M350,378h4v1h-4Z M359,378h3v1h-3Z M364,378h2v1h-2Z M96,379h9v1h-9Z M110,379h7v1h-7Z M123,379h7v1h-7Z M134,379h9v1h-9Z M147,379h3v1h-3Z M152,379h4v1h-4Z M163,379h2v1h-2Z M171,379h3v1h-3Z M177,379h3v1h-3Z M185,379h8v1h-8Z M197,379h2v1h-2Z M203,379h4v1h-4Z M217,379h4v1h-4Z M224,379h2v1h-2Z M231,379h2v1h-2Z M245,379h7v1h-7Z M257,379h2v1h-2Z M262,379h3v1h-3Z M269,379h9v1h-9Z M283,379h3v1h-3Z M289,379h3v1h-3Z M295,379h3v1h-3Z M303,379h7v1h-7Z M315,379h8v1h-8Z M326,379h2v1h-2Z M331,379h3v1h-3Z M337,379h5v1h-5Z M345,379h3v1h-3Z M351,379h3v1h-3Z M359,379h7v1h-7Z M96,380h3v1h-3Z M102,380h3v1h-3Z M111,380h6v1h-6Z M123,380h6v1h-6Z M134,380h4v1h-4Z M141,380h2v1h-2Z M147,380h3v1h-3Z M153,380h3v1h-3Z M163,380h2v1h-2Z M170,380h3v1h-3Z M178,380h2v1h-2Z M185,380h4v1h-4Z M190,380h3v1h-3Z M197,380h2v1h-2Z M203,380h4v1h-4Z M217,380h4v1h-4Z M224,380h3v1h-3Z M231,380h2v1h-2Z M245,380h7v1h-7Z M257,380h2v1h-2Z M262,380h4v1h-4Z M270,380h7v1h-7Z M283,380h2v1h-2Z M289,380h3v1h-3Z M296,380h2v1h-2Z M303,380h7v1h-7Z M315,380h7v1h-7Z M326,380h2v1h-2Z M331,380h3v1h-3Z M337,380h4v1h-4Z M345,380h3v1h-3Z M351,380h3v1h-3Z M359,380h7v1h-7Z M189,381h1v1h-1Z M219,381h1v1h-1Z M245,381h1v1h-1Z M143,389h1v1h-1Z M154,389h3v1h-3Z M178,389h3v1h-3Z M194,389h1v1h-1Z M225,389h4v1h-4Z M258,389h1v1h-1Z M318,389h1v1h-1Z M143,390h4v1h-4Z M154,390h6v1h-6Z M165,390h8v1h-8Z M177,390h6v1h-6Z M192,390h2v1h-2Z M195,390h1v1h-1Z M200,390h9v1h-9Z M212,390h3v1h-3Z M220,390h2v1h-2Z M224,390h5v1h-5Z M235,390h4v1h-4Z M254,390h5v1h-5Z M264,390h2v1h-2Z M268,390h1v1h-1Z M270,390h2v1h-2Z M277,390h4v1h-4Z M287,390h8v1h-8Z M299,390h7v1h-7Z M310,390h3v1h-3Z M318,390h2v1h-2Z M141,391h7v1h-7Z M154,391h7v1h-7Z M165,391h8v1h-8Z M177,391h7v1h-7Z M192,391h3v1h-3Z M200,391h9v1h-9Z M212,391h3v1h-3Z M220,391h8v1h-8Z M229,391h1v1h-1Z M233,391h7v1h-7Z M253,391h7v1h-7Z M264,391h8v1h-8Z M276,391h7v1h-7Z M287,391h8v1h-8Z M299,391h7v1h-7Z M310,391h4v1h-4Z M317,391h3v1h-3Z M141,392h8v1h-8Z M154,392h2v1h-2Z M157,392h4v1h-4Z M165,392h3v1h-3Z M169,392h2v1h-2Z M177,392h2v1h-2Z M181,392h4v1h-4Z M190,392h5v1h-5Z M203,392h2v1h-2Z M206,392h2v1h-2Z M212,392h3v1h-3Z M220,392h5v1h-5Z M226,392h2v1h-2Z M229,392h1v1h-1Z M233,392h3v1h-3Z M237,392h3v1h-3Z M253,392h3v1h-3Z M257,392h2v1h-2Z M264,392h3v1h-3Z M268,392h4v1h-4Z M276,392h3v1h-3Z M280,392h3v1h-3Z M290,392h5v1h-5Z M299,392h2v1h-2Z M304,392h2v1h-2Z M310,392h4v1h-4Z M317,392h3v1h-3Z M141,393h2v1h-2Z M145,393h5v1h-5Z M154,393h2v1h-2Z M159,393h3v1h-3Z M165,393h3v1h-3Z M170,393h3v1h-3Z M177,393h2v1h-2Z M182,393h4v1h-4Z M189,393h7v1h-7Z M202,393h3v1h-3Z M206,393h2v1h-2Z M212,393h3v1h-3Z M220,393h4v1h-4Z M226,393h2v1h-2Z M229,393h1v1h-1Z M232,393h3v1h-3Z M238,393h3v1h-3Z M251,393h1v1h-1Z M253,393h3v1h-3Z M265,393h6v1h-6Z M276,393h3v1h-3Z M281,393h1v1h-1Z M290,393h5v1h-5Z M299,393h2v1h-2Z M305,393h2v1h-2Z M310,393h10v1h-10Z M141,394h2v1h-2Z M146,394h4v1h-4Z M154,394h2v1h-2Z M158,394h4v1h-4Z M165,394h7v1h-7Z M177,394h2v1h-2Z M181,394h5v1h-5Z M189,394h4v1h-4Z M194,394h2v1h-2Z M202,394h3v1h-3Z M206,394h1v1h-1Z M212,394h3v1h-3Z M219,394h6v1h-6Z M226,394h2v1h-2Z M229,394h1v1h-1Z M232,394h3v1h-3Z M237,394h6v1h-6Z M252,394h6v1h-6Z M264,394h1v1h-1Z M266,394h4v1h-4Z M276,394h5v1h-5Z M282,394h2v1h-2Z M290,394h2v1h-2Z M299,394h6v1h-6Z M306,394h1v1h-1Z M310,394h7v1h-7Z M318,394h2v1h-2Z M141,395h2v1h-2Z M146,395h3v1h-3Z M154,395h8v1h-8Z M165,395h7v1h-7Z M177,395h8v1h-8Z M189,395h4v1h-4Z M194,395h2v1h-2Z M202,395h3v1h-3Z M212,395h3v1h-3Z M218,395h4v1h-4Z M223,395h2v1h-2Z M226,395h2v1h-2Z M229,395h1v1h-1Z M232,395h3v1h-3Z M237,395h5v1h-5Z M253,395h6v1h-6Z M265,395h4v1h-4Z M277,395h8v1h-8Z M288,395h1v1h-1Z M290,395h2v1h-2Z M298,395h7v1h-7Z M309,395h8v1h-8Z M318,395h2v1h-2Z M141,396h2v1h-2Z M146,396h3v1h-3Z M153,396h7v1h-7Z M164,396h4v1h-4Z M177,396h6v1h-6Z M190,396h7v1h-7Z M203,396h2v1h-2Z M212,396h3v1h-3Z M219,396h3v1h-3Z M223,396h5v1h-5Z M229,396h1v1h-1Z M232,396h3v1h-3Z M237,396h6v1h-6Z M256,396h4v1h-4Z M267,396h2v1h-2Z M275,396h1v1h-1Z M279,396h4v1h-4Z M284,396h1v1h-1Z M288,396h1v1h-1Z M290,396h2v1h-2Z M298,396h3v1h-3Z M308,396h5v1h-5Z M314,396h3v1h-3Z M318,396h2v1h-2Z M141,397h4v1h-4Z M146,397h3v1h-3Z M153,397h3v1h-3Z M164,397h4v1h-4Z M177,397h3v1h-3Z M181,397h2v1h-2Z M189,397h8v1h-8Z M198,397h1v1h-1Z M203,397h2v1h-2Z M212,397h4v1h-4Z M220,397h2v1h-2Z M224,397h4v1h-4Z M232,397h3v1h-3Z M238,397h4v1h-4Z M253,397h1v1h-1Z M255,397h1v1h-1Z M257,397h3v1h-3Z M267,397h2v1h-2Z M274,397h4v1h-4Z M281,397h2v1h-2Z M288,397h1v1h-1Z M290,397h2v1h-2Z M299,397h2v1h-2Z M308,397h5v1h-5Z M316,397h1v1h-1Z M318,397h2v1h-2Z M141,398h8v1h-8Z M154,398h3v1h-3Z M164,398h4v1h-4Z M177,398h7v1h-7Z M189,398h5v1h-5Z M195,398h4v1h-4Z M203,398h2v1h-2Z M212,398h4v1h-4Z M220,398h2v1h-2Z M225,398h3v1h-3Z M233,398h3v1h-3Z M237,398h5v1h-5Z M252,398h4v1h-4Z M257,398h3v1h-3Z M267,398h2v1h-2Z M274,398h5v1h-5Z M280,398h3v1h-3Z M288,398h1v1h-1Z M290,398h2v1h-2Z M299,398h4v1h-4Z M309,398h4v1h-4Z M315,398h1v1h-1Z M318,398h2v1h-2Z M142,399h6v1h-6Z M154,399h4v1h-4Z M165,399h8v1h-8Z M177,399h4v1h-4Z M182,399h3v1h-3Z M188,399h3v1h-3Z M196,399h3v1h-3Z M203,399h2v1h-2Z M212,399h4v1h-4Z M220,399h2v1h-2Z M224,399h4v1h-4Z M233,399h7v1h-7Z M253,399h6v1h-6Z M267,399h2v1h-2Z M276,399h7v1h-7Z M290,399h3v1h-3Z M299,399h7v1h-7Z M310,399h4v1h-4Z M318,399h2v1h-2Z M144,400h2v1h-2Z M154,400h3v1h-3Z M166,400h4v1h-4Z M177,400h4v1h-4Z M183,400h2v1h-2Z M189,400h1v1h-1Z M196,400h2v1h-2Z M204,400h1v1h-1Z M213,400h2v1h-2Z M224,400h1v1h-1Z M226,400h2v1h-2Z M235,400h3v1h-3Z M255,400h2v1h-2Z M267,400h1v1h-1Z M278,400h3v1h-3Z M290,400h3v1h-3Z M302,400h3v1h-3Z M311,400h3v1h-3Z" fill="#08d6ff" opacity="0.55"/>
</svg>